<svg width="22" height="22" viewBox="0 0 22 22" fill="none" xmlns="http://www.w3.org/2000/svg">
<path d="M20.46 6.5725C20.349 6.13826 20.1778 5.72171 19.9512 5.335C19.7336 4.93272 19.4554 4.56634 19.1262 4.24875C18.6491 3.77319 18.084 3.39492 17.4625 3.135C16.2115 2.62156 14.8085 2.62156 13.5575 3.135C12.97 3.38366 12.4303 3.73261 11.9625 4.16625L11.8937 4.24875L11 5.1425L10.1062 4.24875L10.0375 4.16625C9.56965 3.73261 9.02994 3.38366 8.44249 3.135C7.19145 2.62156 5.78853 2.62156 4.53749 3.135C3.91597 3.39492 3.3509 3.77319 2.87374 4.24875C2.22111 4.88377 1.75913 5.68868 1.53999 6.5725C1.42341 7.02133 1.36791 7.48384 1.37499 7.9475C1.37499 8.38338 1.42999 8.81788 1.53999 9.24C1.65526 9.66631 1.82146 10.0772 2.03499 10.4638C2.2656 10.8611 2.54761 11.2264 2.87374 11.55L11 19.6763L19.1262 11.55C19.4521 11.2296 19.7312 10.8625 19.9512 10.4638C20.3978 9.70077 20.6306 8.83155 20.625 7.9475C20.6321 7.48383 20.5766 7.02132 20.46 6.5725ZM19.085 8.81375C18.9203 9.44202 18.5931 10.0158 18.1362 10.4775L10.9725 17.6275L3.80874 10.4775C3.5753 10.2424 3.37206 9.97912 3.20374 9.69375C3.04535 9.41144 2.92074 9.11146 2.83249 8.8C2.76204 8.48859 2.72516 8.17053 2.72249 7.85125C2.72436 7.52285 2.76123 7.19559 2.83249 6.875C2.91815 6.56266 3.04289 6.26237 3.20374 5.98125C3.36874 5.6925 3.57224 5.43125 3.80874 5.1975C4.16197 4.849 4.57695 4.56924 5.03249 4.3725C5.95046 4.00527 6.97452 4.00527 7.89249 4.3725C8.34624 4.56088 8.75599 4.83725 9.10249 5.18375L10.9725 7.0675L12.8425 5.18375C13.1887 4.83664 13.5999 4.56099 14.0525 4.3725C14.9705 4.00527 15.9945 4.00527 16.9125 4.3725C17.3676 4.56913 17.7829 4.84963 18.1362 5.1975C18.3755 5.42438 18.5762 5.68838 18.7275 5.98125C19.046 6.54289 19.2119 7.17811 19.2087 7.82375C19.2274 8.15599 19.1997 8.4892 19.1262 8.81375H19.085Z" fill="#574AE8"/>
</svg>
